<?xml version="1.0" encoding="utf-8"?>
<!-- Generator: Adobe Illustrator 16.0.0, SVG Export Plug-In . SVG Version: 6.00 Build 0)  -->
<!DOCTYPE svg PUBLIC "-//W3C//DTD SVG 1.1//EN" "http://www.w3.org/Graphics/SVG/1.1/DTD/svg11.dtd">
<svg version="1.1" id="Layer_1" xmlns="http://www.w3.org/2000/svg" xmlns:xlink="http://www.w3.org/1999/xlink" x="0px" y="0px"
	 width="320px" height="110px" viewBox="-1.25 0 320 110" enable-background="new -1.25 0 320 110" xml:space="preserve">
<g>
	<text transform="matrix(1 0 0 1 122.749 80.0957)" fill="#FFFFFF" font-family="'AmaticSC-Regular'" font-size="75.9158">huellitas</text>
</g>
<g>
	<circle fill="#FFFFFF" cx="53.75" cy="55" r="55"/>
</g>
<g>
	<g>
		<g>
			<g>
				<path fill="#C02846" d="M31.558,43.115c-7.095-3.38-9.461,4.9-9.63,12.334s6.252,11.658,11.66,6.42
					c5.405-5.236,5.065-9.292,3.378-13.01C35.276,45.143,31.558,43.115,31.558,43.115z"/>
				<path fill="#C02846" d="M41.737,20.719c-4.605,0.158-8.419,7.941-8.735,11.594c-0.318,3.652,2.224,8.734,7.782,10.959
					c5.561,2.223,6.988-2.541,7.782-6.354c0.796-3.811,0.796-8.418-1.747-12.388C44.28,20.561,41.737,20.719,41.737,20.719z"/>
				<path fill="#C02846" d="M74.341,43.899c7.096-3.379,9.461,4.9,9.629,12.335c0.17,7.434-6.25,11.658-11.658,6.42
					c-5.407-5.238-5.067-9.293-3.377-13.01C70.622,45.927,74.341,43.899,74.341,43.899z"/>
				<path fill="#C02846" d="M64.052,20.719c4.605,0.158,8.416,7.941,8.734,11.594s-2.224,8.734-7.783,10.959
					c-5.557,2.223-6.986-2.541-7.782-6.354c-0.794-3.811-0.794-8.418,1.747-12.388C61.51,20.561,64.052,20.719,64.052,20.719z"/>
				<path fill="#C02846" d="M53.793,51.671c-10.239-1.085-8.601,8.339-13.136,13.148c-4.539,4.812-10.034,7.377-9.555,16.677
					c0.477,9.301,7.642,8.98,23.407,9.301c15.764,0.32,20.78-1.604,21.258-8.339c0.477-6.734-2.389-8.337-7.165-13.47
					C63.824,63.857,62.869,52.633,53.793,51.671z"/>
			</g>
		</g>
	</g>
</g>
</svg>
