<?xml version="1.0" encoding="utf-8"?>
<!-- Generator: Adobe Illustrator 16.0.0, SVG Export Plug-In . SVG Version: 6.00 Build 0)  -->
<!DOCTYPE svg PUBLIC "-//W3C//DTD SVG 1.1//EN" "http://www.w3.org/Graphics/SVG/1.1/DTD/svg11.dtd">
<svg version="1.1" id="Layer_1" xmlns="http://www.w3.org/2000/svg" xmlns:xlink="http://www.w3.org/1999/xlink" x="0px" y="0px"
	 width="270px" height="70px" viewBox="0 0 270 70" enable-background="new 0 0 270 70" xml:space="preserve">
<g>
	<polygon fill="#FEC111" points="61.816,22.222 52.391,22.222 52.391,63.844 53.631,63.844 69.738,35.945 	"/>
	<path fill="#FEC111" d="M31.364,17.471h27.708l-5.441-9.425H21.416L5.309,35.945l16.107,27.899h25.627V22.222H34.37L31.364,17.471z
		 M44.352,52.856L26.123,24.863h-0.251c0.335,4.532,0.502,8.684,0.502,12.459v15.336h-4.938V17.471h6.041l16.875,26.022V52.856z"/>
</g>
<polygon fill="#FFFFFF" points="98.639,49.85 90.854,25.808 90.854,49.85 87.175,49.85 87.175,18.584 91.61,18.584 99.167,43.979 
	99.167,18.584 102.847,18.584 102.847,49.85 "/>
<path fill="#FFFFFF" d="M115.551,50.213c-2.01,0-3.665-0.68-5.062-2.077c-1.396-1.396-2.075-3.044-2.075-5.034V18.61h3.575v24.439
	c0,0.943,0.341,1.756,1.011,2.415c0.667,0.657,1.482,0.99,2.421,0.99c0.94,0,1.752-0.334,2.411-0.994
	c0.659-0.658,0.994-1.47,0.994-2.411V18.61h3.887v24.492c0,2.022-0.686,3.678-2.097,5.056
	C119.202,49.541,117.545,50.213,115.551,50.213z"/>
<polygon fill="#FFFFFF" points="139.744,49.85 131.959,25.808 131.959,49.85 128.279,49.85 128.279,18.584 132.715,18.584 
	140.272,43.979 140.272,18.584 143.952,18.584 143.952,49.85 "/>
<path fill="#FFFFFF" d="M156.629,50.264c-2.009,0-3.669-0.683-5.074-2.088s-2.088-3.057-2.088-5.048V25.41
	c0-2.008,0.687-3.667,2.1-5.073c1.414-1.406,3.07-2.09,5.063-2.09c2.008,0,3.663,0.687,5.06,2.099
	c1.398,1.415,2.078,3.071,2.078,5.063v3.096h-3.861v-3.199c0-0.94-0.339-1.756-1.007-2.424c-0.669-0.668-1.484-1.007-2.425-1.007
	c-0.942,0-1.755,0.34-2.415,1.011c-0.656,0.668-0.99,1.483-0.99,2.421v17.769c0,0.939,0.334,1.751,0.994,2.411
	c0.659,0.66,1.471,0.994,2.411,0.994c0.938,0,1.753-0.333,2.421-0.99c0.671-0.66,1.011-1.474,1.011-2.415v-3.874h3.861v3.927
	c0,2.007-0.687,3.662-2.099,5.058C160.253,49.585,158.604,50.264,156.629,50.264z"/>
<path fill="#FFFFFF" d="M180.236,49.85l-1.146-7.461h-6.151l-1.189,7.461h-3.859l5.312-31.24h5.705l5.235,31.24H180.236z
	 M173.517,38.84h5.026l-2.514-17.736L173.517,38.84z"/>
<polygon fill="#FFFFFF" points="197.41,49.85 197.41,22.315 192.203,22.315 192.203,18.61 206.271,18.61 206.271,22.315 
	201.09,22.315 201.09,49.85 "/>
<path fill="#FFFFFF" d="M219.425,49.85l-1.146-7.461h-6.151l-1.189,7.461h-3.858l5.312-31.24h5.705l5.235,31.24H219.425z
	 M212.705,38.84h5.026l-2.513-17.736L212.705,38.84z"/>
<polygon fill="#FFFFFF" points="240.641,49.85 236.461,38.348 232.249,49.85 228.308,49.85 234.442,34.137 228.311,18.61 
	232.404,18.61 236.459,29.819 240.485,18.61 244.578,18.61 238.446,34.138 244.581,49.85 "/>
<rect x="250.145" y="18.61" fill="#FFFFFF" width="3.681" height="31.24"/>
</svg>
